# xmcd
# 
# Track frame offsets:
#     150
#     16865
#     37020
#     63750
#     86062
#     100420
#     123297
#     141130
#     160305
#     179575
#     201277
#     218815
# 
# Disc length: 3845
# 
# Revision: 2
# Processed by: cddbd v1.5.2PL0 Copyright (c) Steve Scherf et al.
# Submitted via: fre:ac v1.1beta1pre5
# 
DISCID=a80f030c
DTITLE=Julee Cruise - The Art of Being a Girl
DYEAR=0
DGENRE=
TTITLE0=You're Staring at Me
TTITLE1=The Orbiting Beatnik
TTITLE2=Falling in Love
TTITLE3=The Art of Being a Girl
TTITLE4=Everybody Knows
TTITLE5=9th Ave. Limbo
TTITLE6=Slow Hot Wind
TTITLE7=Cha Cha in the Dark
TTITLE8=Shine
TTITLE9=Beachcomber Voodoo
TTITLE10=Three Jack Swing
TTITLE11=The Fire in Me - Falling
EXTD=
EXTT0=
EXTT1=
EXTT2=
EXTT3=
EXTT4=
EXTT5=
EXTT6=
EXTT7=
EXTT8=
EXTT9=
EXTT10=
EXTT11=
PLAYORDER=
